<svg xmlns="http://www.w3.org/2000/svg"
     viewBox="0 0 72 72">

  <defs>
    <mask id="ln-mask" x="0" y="0" width="72" height="72" maskUnits="userSpaceOnUse">
      <rect x="0" y="0" width="72" height="72" fill="white"/>
      <path
        d="M62,62 L51.3156,62 L51.3156,43.8021 C51.3156,38.8128 49.4198,36.0245 45.4707,36.0245 C41.1746,36.0245 38.9301,38.9261 38.9301,43.8021 L38.9301,62 L28.6333,62 L28.6333,27.3333 L38.9301,27.3333 L38.9301,32.0029 C38.9301,32.0029 42.0260,26.2742 49.3826,26.2742 C56.7357,26.2742 62,30.7645 62,40.0512 L62,62 Z
           M16.3493,22.7940 C12.8421,22.7940 10,19.9297 10,16.3970 C10,12.8644 12.8421,10 16.3493,10 C19.8566,10 22.6970,12.8644 22.6970,16.3970 C22.6970,19.9297 19.8566,22.7940 16.3493,22.7940 Z
           M11.0326,62 L21.7694,62 L21.7694,27.3333 L11.0326,27.3333 L11.0326,62 Z"
        fill="currentColor"/>
    </mask>
  </defs>

  <path
    d="M8,72 L64,72 C68.4183,72 72,68.4183 72,64 L72,8 C72,3.5817 68.4183,0 64,0 L8,0 C3.5817,0 0,3.5817 0,8 L0,64 C0,68.4183 3.5817,72 8,72 Z"
    fill="#000000"
    mask="url(#ln-mask)"
  />
</svg>
