<svg width="29" height="29" viewBox="0 0 29 29" fill="none" xmlns="http://www.w3.org/2000/svg">
<path d="M26.5833 10.0533V21.75C26.5833 22.391 26.3287 23.0056 25.8755 23.4589C25.4223 23.9121 24.8076 24.1667 24.1666 24.1667H4.83329C4.19235 24.1667 3.57766 23.9121 3.12445 23.4589C2.67124 23.0056 2.41663 22.391 2.41663 21.75V10.5004L4.83329 11.8175L13.92 16.7717C14.0981 16.8678 14.2975 16.9177 14.5 16.9167C14.7127 16.9145 14.9211 16.8561 15.1041 16.7475L24.1666 11.4671L26.5833 10.0533Z" fill="#231F20"/>
<path d="M26.5833 7.25001L24.1666 8.67584L14.5 14.3188L4.83329 9.06251L2.41663 7.73334V7.25001C2.41663 6.60907 2.67124 5.99438 3.12445 5.54117C3.57766 5.08796 4.19235 4.83334 4.83329 4.83334H24.1666C24.8076 4.83334 25.4223 5.08796 25.8755 5.54117C26.3287 5.99438 26.5833 6.60907 26.5833 7.25001Z" fill="#231F20"/>
</svg>
